<svg width="195" height="25" viewBox="0 0 195 25" fill="none" xmlns="http://www.w3.org/2000/svg">
    <path d="M195 0H0L19.5391 25H175.96L195 0Z" fill="#4DF4FF" />
    <path
        d="M48.7252 22V7.88H50.9252L51.8652 10.7V22H48.7252ZM58.4652 22L50.1452 11.34L50.9252 7.88L59.2452 18.54L58.4652 22ZM58.4652 22L57.6252 19.18V7.88H60.7652V22H58.4652ZM69.1709 22.22C68.0109 22.22 66.9842 21.9733 66.0909 21.48C65.2109 20.9867 64.5175 20.3067 64.0109 19.44C63.5175 18.56 63.2709 17.56 63.2709 16.44V7.88H66.4309V16.62C66.4309 17.18 66.5509 17.6667 66.7909 18.08C67.0309 18.4933 67.3575 18.8133 67.7709 19.04C68.1975 19.2533 68.6642 19.36 69.1709 19.36C69.7042 19.36 70.1709 19.2533 70.5709 19.04C70.9709 18.8133 71.2842 18.5 71.5109 18.1C71.7509 17.6867 71.8709 17.2 71.8709 16.64V7.88H75.0309V16.46C75.0309 17.58 74.7842 18.5733 74.2909 19.44C73.7975 20.3067 73.1109 20.9867 72.2309 21.48C71.3509 21.9733 70.3309 22.22 69.1709 22.22ZM86.1423 22L82.2023 15.7H81.8223L76.3823 7.88H80.1223L84.0023 13.8H84.3823L89.8223 22H86.1423ZM76.1223 22L81.3423 14.44L83.7623 15.8L79.7023 22H76.1223ZM84.5023 15.34L82.0823 13.98L86.0023 7.88H89.5823L84.5023 15.34ZM94.1188 22V8.08H97.2588V22H94.1188ZM89.6988 10.62V7.88H101.679V10.62H89.6988ZM109.43 22.24C108.363 22.24 107.377 22.0533 106.47 21.68C105.577 21.3067 104.79 20.7867 104.11 20.12C103.43 19.4533 102.903 18.68 102.53 17.8C102.157 16.9067 101.97 15.9467 101.97 14.92C101.97 13.88 102.157 12.92 102.53 12.04C102.903 11.16 103.423 10.3933 104.09 9.74C104.757 9.07333 105.537 8.56 106.43 8.2C107.337 7.82667 108.323 7.64 109.39 7.64C110.443 7.64 111.417 7.82667 112.31 8.2C113.217 8.56 114.003 9.07333 114.67 9.74C115.35 10.3933 115.877 11.1667 116.25 12.06C116.623 12.94 116.81 13.9 116.81 14.94C116.81 15.9667 116.623 16.9267 116.25 17.82C115.877 18.7 115.357 19.4733 114.69 20.14C114.023 20.7933 113.237 21.3067 112.33 21.68C111.437 22.0533 110.47 22.24 109.43 22.24ZM109.39 19.38C110.23 19.38 110.963 19.1933 111.59 18.82C112.23 18.4467 112.723 17.9267 113.07 17.26C113.417 16.58 113.59 15.8 113.59 14.92C113.59 14.2533 113.49 13.6533 113.29 13.12C113.09 12.5733 112.803 12.1067 112.43 11.72C112.057 11.32 111.61 11.02 111.09 10.82C110.583 10.6067 110.017 10.5 109.39 10.5C108.55 10.5 107.81 10.6867 107.17 11.06C106.543 11.42 106.057 11.9333 105.71 12.6C105.363 13.2533 105.19 14.0267 105.19 14.92C105.19 15.5867 105.29 16.1933 105.49 16.74C105.69 17.2867 105.97 17.76 106.33 18.16C106.703 18.5467 107.15 18.8467 107.67 19.06C108.19 19.2733 108.763 19.38 109.39 19.38ZM120.923 22V19.24H124.423C125.277 19.24 126.023 19.0733 126.663 18.74C127.303 18.3933 127.797 17.8933 128.143 17.24C128.49 16.5867 128.663 15.8133 128.663 14.92C128.663 14.0267 128.483 13.26 128.123 12.62C127.777 11.98 127.283 11.4867 126.643 11.14C126.017 10.7933 125.277 10.62 124.423 10.62H120.823V7.88H124.463C125.53 7.88 126.51 8.05333 127.403 8.4C128.31 8.73333 129.097 9.22 129.763 9.86C130.443 10.4867 130.963 11.2333 131.323 12.1C131.697 12.9533 131.883 13.9 131.883 14.94C131.883 15.9667 131.697 16.9133 131.323 17.78C130.963 18.6467 130.45 19.3933 129.783 20.02C129.117 20.6467 128.33 21.1333 127.423 21.48C126.53 21.8267 125.557 22 124.503 22H120.923ZM118.803 22V7.88H121.943V22H118.803ZM140.621 22.24C139.555 22.24 138.568 22.0533 137.661 21.68C136.768 21.3067 135.981 20.7867 135.301 20.12C134.621 19.4533 134.095 18.68 133.721 17.8C133.348 16.9067 133.161 15.9467 133.161 14.92C133.161 13.88 133.348 12.92 133.721 12.04C134.095 11.16 134.615 10.3933 135.281 9.74C135.948 9.07333 136.728 8.56 137.621 8.2C138.528 7.82667 139.515 7.64 140.581 7.64C141.635 7.64 142.608 7.82667 143.501 8.2C144.408 8.56 145.195 9.07333 145.861 9.74C146.541 10.3933 147.068 11.1667 147.441 12.06C147.815 12.94 148.001 13.9 148.001 14.94C148.001 15.9667 147.815 16.9267 147.441 17.82C147.068 18.7 146.548 19.4733 145.881 20.14C145.215 20.7933 144.428 21.3067 143.521 21.68C142.628 22.0533 141.661 22.24 140.621 22.24ZM140.581 19.38C141.421 19.38 142.155 19.1933 142.781 18.82C143.421 18.4467 143.915 17.9267 144.261 17.26C144.608 16.58 144.781 15.8 144.781 14.92C144.781 14.2533 144.681 13.6533 144.481 13.12C144.281 12.5733 143.995 12.1067 143.621 11.72C143.248 11.32 142.801 11.02 142.281 10.82C141.775 10.6067 141.208 10.5 140.581 10.5C139.741 10.5 139.001 10.6867 138.361 11.06C137.735 11.42 137.248 11.9333 136.901 12.6C136.555 13.2533 136.381 14.0267 136.381 14.92C136.381 15.5867 136.481 16.1933 136.681 16.74C136.881 17.2867 137.161 17.76 137.521 18.16C137.895 18.5467 138.341 18.8467 138.861 19.06C139.381 19.2733 139.955 19.38 140.581 19.38Z"
        fill="#191717" />
</svg>